<svg width="24" height="25" viewBox="0 0 24 25" fill="none" xmlns="http://www.w3.org/2000/svg">
<g clip-path="url(#clip0_8_2565)">
<path d="M24 12.8497C24 6.18178 18.6274 0.776367 12 0.776367C5.37258 0.776367 0 6.18178 0 12.8497C0 18.8758 4.3882 23.8706 10.125 24.7764V16.3397H7.07812V12.8497H10.125V10.1898C10.125 7.16392 11.9166 5.49251 14.6576 5.49251C15.9701 5.49251 17.3438 5.72832 17.3438 5.72832V8.69949H15.8306C14.34 8.69949 13.875 9.63023 13.875 10.586V12.8497H17.2031L16.6711 16.3397H13.875V24.7764C19.6118 23.8706 24 18.8758 24 12.8497Z" fill="#eb2127"/>
</g>
<defs>
<clipPath id="clip0_8_2565">
<rect width="24" height="24" fill="white" transform="translate(0 0.776367)"/>
</clipPath>
</defs>
</svg>
