<svg width="25" height="25" viewBox="0 0 25 25" fill="none" xmlns="http://www.w3.org/2000/svg">
<path d="M12.0252 24.1031C10.3096 24.1031 8.58208 24.1151 6.86651 24.1031C3.01547 24.0791 0.0642076 21.1518 0.0522106 17.3128C0.0402136 13.8337 0.0402136 10.3545 0.0522106 6.8754C0.0642076 3.06036 3.01547 0.121092 6.81852 0.109095C10.2976 0.0970984 13.7768 0.0970984 17.2559 0.109095C21.071 0.121092 24.0222 3.06036 24.0342 6.86341C24.0462 10.3665 24.0462 13.8577 24.0342 17.3608C24.0102 21.1398 21.071 24.0671 17.2919 24.1031C15.5403 24.1031 13.7768 24.0911 12.0252 24.1031ZM12.0132 17.8527C15.1924 17.8647 17.7838 15.2973 17.7958 12.1181C17.8078 8.93889 15.2404 6.34753 12.0612 6.33554C8.894 6.33554 6.30265 8.9029 6.29065 12.0701C6.27865 15.2613 8.84601 17.8527 12.0132 17.8527ZM19.7153 5.84366C19.7033 5.05186 19.0315 4.40402 18.2397 4.42801C17.4719 4.45201 16.848 5.08785 16.836 5.85566C16.836 6.64746 17.4839 7.30729 18.2877 7.2953C19.0795 7.2953 19.7273 6.63546 19.7153 5.84366Z" fill="#eb2127"/>
<path d="M12.0613 8.26666C14.1847 8.27866 15.8883 10.0062 15.8763 12.1417C15.8643 14.2652 14.1128 15.9687 11.9893 15.9447C9.90182 15.9207 8.19824 14.2052 8.19824 12.1057C8.21024 9.97024 9.93781 8.25467 12.0613 8.26666Z" fill="#eb2127"/>
</svg>
