<svg width="24" height="25" viewBox="0 0 24 25" fill="none" xmlns="http://www.w3.org/2000/svg">
<g clip-path="url(#clip0_8_2567)">
<path d="M22.2234 0.776367H1.77187C0.792187 0.776367 0 1.5498 0 2.50605V23.042C0 23.9982 0.792187 24.7764 1.77187 24.7764H22.2234C23.2031 24.7764 24 23.9982 24 23.0467V2.50605C24 1.5498 23.2031 0.776367 22.2234 0.776367ZM7.12031 21.2279H3.55781V9.77168H7.12031V21.2279ZM5.33906 8.21074C4.19531 8.21074 3.27188 7.2873 3.27188 6.14824C3.27188 5.00918 4.19531 4.08574 5.33906 4.08574C6.47813 4.08574 7.40156 5.00918 7.40156 6.14824C7.40156 7.28262 6.47813 8.21074 5.33906 8.21074ZM20.4516 21.2279H16.8937V15.6592C16.8937 14.3326 16.8703 12.6217 15.0422 12.6217C13.1906 12.6217 12.9094 14.0701 12.9094 15.5654V21.2279H9.35625V9.77168H12.7687V11.3373H12.8156C13.2891 10.4373 14.4516 9.48574 16.1813 9.48574C19.7859 9.48574 20.4516 11.8576 20.4516 14.942V21.2279Z" fill="#eb2127"/>
</g>
<defs>
<clipPath id="clip0_8_2567">
<rect width="24" height="24" fill="white" transform="translate(0 0.776367)"/>
</clipPath>
</defs>
</svg>
