<svg width="65" height="90" viewBox="0 0 65 90" fill="none" xmlns="http://www.w3.org/2000/svg">
<g clip-path="url(#clip0_2_6119)">
<path d="M2.4421 86.5666V87.8391L3.55947 87.3965L3.89468 87.7284C3.89468 87.8944 3.89468 88.0051 3.89468 88.1157C3.89468 88.5583 3.78294 88.8903 3.55947 89.1669C3.33599 89.4435 2.94491 89.5542 2.55383 89.5542C2.10688 89.5542 1.7158 89.3882 1.32473 89.0009C1.04538 88.669 0.821908 88.2817 0.654303 87.8391L0.933645 87.6178C1.32473 88.669 1.88341 89.2222 2.55383 89.2222C2.83318 89.2222 3.05665 89.1116 3.22425 88.9456C3.39186 88.7243 3.5036 88.503 3.5036 88.2817C3.5036 88.171 3.5036 88.0604 3.44773 87.9497L2.4421 88.3923L2.05102 88.1157V86.7326H0.319092V86.4006H4.11815V86.7326H2.4421V86.5666Z" fill="#231F20"/>
<path d="M4.90049 86.5665V89.4987H4.50941V86.5665H4.00659V86.2345H5.34743V86.5665H4.90049Z" fill="#231F20"/>
<path d="M7.41435 86.5663V86.7876C7.69369 86.7876 8.0289 86.8982 8.25237 87.0642C8.53172 87.2855 8.69932 87.5068 8.69932 87.7835C8.69932 88.0048 8.58758 88.2261 8.41998 88.3367C8.25237 88.4474 8.0289 88.558 7.80542 88.558C7.80542 88.558 7.74956 88.558 7.69369 88.558V88.1707H7.91716C8.1965 88.1707 8.36411 88.0601 8.36411 87.7835C8.36411 87.4515 8.0289 87.2302 7.41435 87.1749V89.5539H7.07913C6.91153 89.2219 6.68805 88.9453 6.40871 88.724C6.12937 88.4474 5.79416 88.2814 5.45895 88.2814L5.34721 87.7835C5.57068 87.6175 6.12937 87.2855 7.02327 86.7876V86.6216H5.23547V86.2897H9.03453V86.6216H7.41435V86.5663ZM7.07913 87.1749C6.91153 87.2302 6.74392 87.3409 6.52045 87.5068L6.01763 87.9494C6.18524 88.0601 6.40871 88.2261 6.57632 88.392C6.68805 88.5027 6.85566 88.6687 7.07913 88.9453V87.1749Z" fill="#231F20"/>
<path d="M14.1747 85.6813C13.5042 85.294 13.0014 85.0727 12.5545 85.0727C12.1634 85.0727 11.8282 85.1834 11.6047 85.3493C11.3254 85.5706 11.2136 85.8473 11.2136 86.2345H11.6047V86.5665H11.2136V89.4987H10.8226V86.5665H10.3756V86.2345H10.7667C10.7667 85.7366 10.9343 85.3493 11.2695 85.0727C11.6047 84.7961 11.9958 84.6854 12.4986 84.6854C12.8338 84.6854 13.169 84.7408 13.4484 84.9067C13.6719 85.0174 13.9512 85.1834 14.3423 85.4047L14.1747 85.6813Z" fill="#231F20"/>
<path d="M14.4539 86.5665V89.4987H14.1187C13.9511 89.2221 13.6159 88.9455 13.0572 88.6688C12.5544 88.3922 12.1074 88.2262 11.7722 88.2262L11.6605 87.7836C11.884 87.6177 12.275 87.3964 12.8337 87.1751C13.0013 87.1197 13.4483 86.9538 14.1187 86.6771V86.5112H11.437V86.1792H14.845V86.5112H14.4539V86.5665ZM14.0628 87.1751C13.6718 87.2857 13.0572 87.5623 12.275 87.9496C13.0013 88.1709 13.56 88.5582 14.0628 88.9455V87.1751Z" fill="#231F20"/>
<path d="M14.7333 86.2345H18.4765V86.5665H14.7333V86.2345ZM16.8004 89.4987C16.3535 89.4987 15.9624 89.3327 15.6272 88.9454C15.3478 88.6135 15.1244 88.2262 14.9568 87.7836L15.1802 87.5623C15.3478 88.0049 15.5154 88.3369 15.7389 88.6135C16.0183 89.0008 16.4093 89.1667 16.7445 89.1667C17.0239 89.1667 17.2474 89.0561 17.415 88.8348C17.5826 88.6135 17.6384 88.3922 17.6384 88.1156C17.3591 88.2815 17.1356 88.3922 16.8563 88.3922C16.6328 88.3922 16.4093 88.3369 16.1859 88.1709C16.0183 88.0049 15.9065 87.7836 15.9065 87.5623C15.9065 87.341 15.9624 87.1197 16.13 87.009C16.2417 86.8431 16.4652 86.7877 16.6887 86.7877C16.8563 86.7877 17.0239 86.8431 17.1356 86.8984C17.2474 87.009 17.3032 87.1197 17.3032 87.2857C17.3032 87.3963 17.2474 87.5623 17.0798 87.673L16.8004 87.4516C16.9121 87.3963 16.9121 87.341 16.9121 87.2304C16.9121 87.1197 16.8563 87.0644 16.6887 87.0644C16.5769 87.0644 16.4652 87.1197 16.3535 87.175C16.2976 87.2857 16.2417 87.341 16.2417 87.507C16.2417 87.673 16.2976 87.7836 16.4093 87.8943C16.5211 88.0049 16.6328 88.0602 16.8004 88.0602C17.0798 88.0602 17.3591 87.9496 17.6384 87.673L17.9736 88.0602C17.9736 88.4475 17.8619 88.8348 17.6384 89.1114C17.5826 89.3327 17.2474 89.4987 16.8004 89.4987Z" fill="#231F20"/>
<path d="M19.2026 86.5665V89.4987H18.8116V86.5665H18.3646V86.2345H19.6496V86.5665H19.2026Z" fill="#231F20"/>
<path d="M21.1022 89.7199C20.6553 89.7199 20.376 89.6645 20.2642 89.4985C19.929 89.1666 19.7614 88.724 19.7614 88.2814C19.7614 88.0048 19.8731 87.6728 20.0407 87.3962C20.1525 87.2302 20.376 86.9536 20.6553 86.6216H19.4821V86.2897H21.3257V86.6216C20.9905 86.7323 20.7112 86.9536 20.4877 87.2855C20.2083 87.6175 20.0966 87.9494 20.0966 88.2814C20.0966 89.0559 20.4318 89.4432 21.1022 89.4432C21.214 89.4432 21.2699 89.3879 21.3816 89.3326V89.7199C21.3257 89.6645 21.2699 89.7199 21.1022 89.7199Z" fill="#231F20"/>
<path d="M23.6163 86.5665V89.4434H23.2253V87.507C23.2253 87.4517 23.1694 87.341 23.0577 87.1751C22.8342 86.7878 22.499 86.5665 22.1638 86.5665C22.052 86.5665 21.8844 86.6218 21.7727 86.7324C21.7168 86.7878 21.6609 86.8431 21.5492 86.9538C21.7168 86.8984 21.8285 86.8431 21.9403 86.8431C22.1079 86.8431 22.2755 86.8984 22.4431 86.9538C22.6107 87.0644 22.6666 87.1751 22.6666 87.3964C22.6666 87.6177 22.5548 87.839 22.3872 88.0603C22.2196 88.2816 21.9961 88.3922 21.7727 88.5029L21.5492 88.1709C21.7168 88.1156 21.8844 88.0049 21.9961 87.8943C22.1638 87.7283 22.2755 87.5623 22.2755 87.4517C22.2755 87.341 22.1638 87.2857 21.9403 87.2304C21.7727 87.1751 21.6609 87.1751 21.4933 87.1751C21.4375 87.1751 21.3816 87.1751 21.3816 87.1751L21.214 86.7878C21.4375 86.5665 21.5492 86.4005 21.6609 86.4005C21.8285 86.2899 21.9961 86.2345 22.2196 86.2345C22.6666 86.2345 23.0577 86.4558 23.337 86.8984V86.1792H24.1192V86.5112H23.6163V86.5665Z" fill="#231F20"/>
<path d="M26.9127 86.5665V89.4987H26.5774C26.4098 89.222 26.0746 88.9454 25.5718 88.6688C25.069 88.3922 24.6779 88.2815 24.2868 88.2815L24.1751 87.8389C24.7338 87.4516 25.5159 87.1197 26.5216 86.7324V86.5665H23.8958V86.2345H27.2479V86.5665H26.9127ZM26.5774 87.175C25.9629 87.3963 25.4042 87.673 24.8455 87.9496C25.4601 88.1709 26.0746 88.5028 26.5774 88.9454V87.175ZM25.5718 89.6093C25.4601 89.4987 25.2366 89.388 25.0131 89.222L25.1807 88.8901C25.4042 89.0008 25.6277 89.1114 25.7953 89.3327L25.5718 89.6093Z" fill="#231F20"/>
<path d="M32.4434 85.6813C31.773 85.294 31.2701 85.0727 30.8232 85.0727C30.4321 85.0727 30.0969 85.1834 29.8734 85.3493C29.5941 85.5706 29.4824 85.8473 29.4824 86.2345H29.8734V86.5665H29.4824V89.4987H29.0913V86.5665H28.7002V86.2345H29.0913C29.0913 85.7366 29.2589 85.3493 29.5941 85.0727C29.9293 84.7961 30.3204 84.6854 30.8232 84.6854C31.1584 84.6854 31.4936 84.7408 31.773 84.9067C31.9964 85.0174 32.2758 85.1834 32.6669 85.4047L32.4434 85.6813Z" fill="#231F20"/>
<path d="M31.7729 86.5666V87.8391L32.8903 87.3965L33.2255 87.7284C33.2255 87.8944 33.2814 88.0051 33.2814 88.1157C33.2814 88.5583 33.1697 88.8903 32.9462 89.1669C32.7227 89.4435 32.3316 89.5542 31.9405 89.5542C31.4936 89.5542 31.1025 89.3882 30.7114 89.0009C30.4321 88.669 30.2086 88.2817 30.041 87.8391L30.3204 87.6178C30.7114 88.669 31.2701 89.2222 31.9405 89.2222C32.2199 89.2222 32.4434 89.1116 32.611 88.9456C32.7786 88.7243 32.8903 88.503 32.8903 88.2817C32.8903 88.171 32.8903 88.0604 32.8344 87.9497L31.8288 88.3923L31.4377 88.1157V86.7326H29.7058V86.4006H33.5049V86.7326H31.7729V86.5666Z" fill="#231F20"/>
<path d="M37.1362 85.6813C36.4658 85.294 35.963 85.0727 35.5161 85.0727C35.125 85.0727 34.7898 85.1834 34.5663 85.3493C34.287 85.5706 34.1752 85.8473 34.1752 86.2345H34.5663V86.5665H34.1752V89.4987H33.7841V86.5665H33.3931V86.2345H33.7841C33.7841 85.7366 33.9517 85.3493 34.287 85.0727C34.6222 84.7961 35.0132 84.6854 35.5161 84.6854C35.8513 84.6854 36.1865 84.7408 36.4658 84.9067C36.6893 85.0174 36.9686 85.1834 37.3597 85.4047L37.1362 85.6813Z" fill="#231F20"/>
<path d="M36.8571 86.5664C36.9688 86.9537 37.2482 87.175 37.6951 87.175C37.751 87.175 37.8069 87.175 37.8627 87.175L38.1421 87.5069C37.9186 87.9495 37.8069 88.3368 37.8069 88.5581C37.8069 89.056 37.8627 89.388 37.9745 89.5539L37.6951 89.6646C37.5275 89.388 37.4158 89.1113 37.4158 88.7794C37.4158 88.5581 37.4158 88.3921 37.4717 88.1708C37.4717 88.0602 37.5275 87.8942 37.6393 87.5622C37.3599 87.5069 37.0806 87.4516 36.8571 87.2856C36.5778 87.1196 36.4102 86.8983 36.3543 86.6217C35.9632 86.8983 35.7397 87.2303 35.7397 87.5622C35.7397 87.7835 35.8515 87.8942 36.0191 87.8942C36.1308 87.8942 36.2426 87.8389 36.2984 87.7835C36.4102 87.7282 36.466 87.6729 36.5219 87.5622H36.913C37.0247 87.6729 37.0247 87.8942 37.0247 88.1708C37.0247 88.89 36.6336 89.2773 35.8515 89.2773C35.6839 89.2773 35.5721 89.222 35.4045 89.1667C35.3487 89.1113 35.181 89.056 35.0134 88.9454C34.9017 88.7241 34.7341 88.4474 34.5106 88.0048L34.7341 87.7835C34.8458 88.0602 35.0134 88.3921 35.2928 88.7241L35.5721 88.8347C35.6839 88.89 35.7956 88.89 35.8515 88.89C36.0749 88.89 36.2984 88.8347 36.4102 88.7241C36.5778 88.6134 36.6336 88.3921 36.6336 88.1708C36.6336 88.0602 36.5778 87.9495 36.5219 87.8389C36.3543 88.0602 36.1308 88.1155 35.9073 88.1155C35.6839 88.1155 35.5721 88.0602 35.4604 87.8942C35.3487 87.7835 35.2928 87.5622 35.2928 87.3963C35.2928 87.1196 35.4045 86.843 35.6839 86.4557H34.1754V86.1238H38.3097V86.4557H36.8571V86.5664Z" fill="#231F20"/>
<path d="M39.0918 86.5663V89.1113H39.3153C39.5946 89.1113 39.9298 89.0559 40.265 88.8346C40.6561 88.6133 40.8237 88.392 40.8237 88.0601C40.8237 87.7281 40.6561 87.5621 40.3209 87.5621C40.2092 87.5621 40.0416 87.6175 39.8181 87.7835L39.6505 87.4515C39.874 87.2855 40.1533 87.2302 40.4327 87.2302C40.6561 87.2302 40.8796 87.3408 40.9913 87.5068C41.1031 87.6728 41.1589 87.8388 41.1589 88.1154C41.1589 88.4473 40.9913 88.724 40.6561 89.0006C40.3768 89.2219 40.0974 89.3879 39.7064 89.4432C39.427 89.4985 39.0918 89.4985 38.589 89.4985V86.5663H38.2538V86.2343H40.6003V86.1237C40.6003 85.9024 40.4885 85.7364 40.3209 85.5704C40.1533 85.4598 39.9298 85.4045 39.7064 85.4045C39.427 85.4045 39.0359 85.5151 38.5331 85.7917L38.4214 85.5151C38.8683 85.2385 39.3153 85.0725 39.7064 85.0725C40.0416 85.0725 40.3209 85.1832 40.5444 85.4045C40.7679 85.6258 40.8796 85.9024 40.8796 86.2343H41.3265V86.5663H39.0918Z" fill="#231F20"/>
<path d="M42.3323 86.5665V89.4987H41.9412V86.5665H41.4384V86.2345H42.7792V86.5665H42.3323Z" fill="#231F20"/>
<path d="M46.1871 86.5665V89.4987H45.8519C45.8519 89.4434 45.8519 89.3327 45.8519 89.2221C45.8519 89.1114 45.8519 89.0008 45.8519 88.9454C45.8519 88.2815 45.6843 87.8943 45.2932 87.8943C45.1815 87.8943 45.0697 87.9496 44.958 88.0602C44.8463 88.1709 44.8463 88.2815 44.7904 88.4475H44.3435C44.3435 88.2815 44.2876 88.1709 44.1759 88.0602C44.0641 87.9496 43.9524 87.8389 43.8406 87.8389C43.673 87.8389 43.5613 87.8943 43.4496 88.0602C43.3937 88.1709 43.3378 88.3369 43.3378 88.5028C43.3378 88.8901 43.5613 89.0561 44.0082 89.0561C44.0641 89.0561 44.12 89.0561 44.12 89.0561L44.0082 89.4434C43.9524 89.4434 43.8965 89.4434 43.8406 89.4434C43.5613 89.4434 43.3378 89.3327 43.1702 89.1667C43.0026 89.0008 42.8909 88.7241 42.8909 88.4475C42.8909 88.1709 43.0026 87.9496 43.1702 87.7283C43.3378 87.5623 43.5613 87.4516 43.8406 87.4516C44.12 87.4516 44.3435 87.6176 44.5669 87.9496C44.7904 87.6176 45.0139 87.4516 45.2374 87.4516C45.4608 87.4516 45.5726 87.6176 45.7402 87.8943V86.5665H42.5557V86.2345H46.4665V86.5665H46.1871Z" fill="#231F20"/>
<path d="M48.5337 88.1707C48.5337 88.392 48.5896 88.6133 48.6454 88.7793C48.7572 89.0559 48.9248 89.1666 49.1482 89.1666C49.26 89.1666 49.3158 89.1113 49.4276 89.1113L49.5393 89.4432C49.4276 89.4985 49.26 89.5539 49.1482 89.5539C48.4778 89.5539 48.1985 89.0559 48.1985 88.0601C48.1985 87.5068 48.5337 86.8983 49.26 86.2897H49.8187V86.6216C49.4276 86.6769 49.1482 86.8429 48.8689 87.2302C48.6454 87.4515 48.5337 87.8388 48.5337 88.1707Z" fill="#231F20"/>
<path d="M53.115 86.5665V89.4987H52.7798C52.7798 89.4434 52.7798 89.3327 52.7798 89.2221C52.7798 89.1114 52.7798 89.0008 52.7798 88.9454C52.7798 88.2815 52.6122 87.8943 52.2211 87.8943C52.1093 87.8943 51.9976 87.9496 51.8859 88.0602C51.7741 88.1709 51.7741 88.2815 51.7183 88.4475H51.2713C51.2713 88.2815 51.2154 88.1709 51.1037 88.0602C50.992 87.9496 50.8802 87.8389 50.7685 87.8389C50.6009 87.8389 50.4892 87.8943 50.3774 88.0602C50.3215 88.1709 50.2657 88.3369 50.2657 88.5028C50.2657 88.8901 50.4892 89.0561 50.9361 89.0561C50.992 89.0561 51.0478 89.0561 51.0478 89.0561L50.9361 89.4434C50.8802 89.4434 50.8244 89.4434 50.7685 89.4434C50.4892 89.4434 50.2657 89.3327 50.0981 89.1667C49.9305 89.0008 49.8187 88.7241 49.8187 88.4475C49.8187 88.1709 49.9305 87.9496 50.0981 87.7283C50.2657 87.5623 50.4892 87.4516 50.7685 87.4516C51.0478 87.4516 51.2713 87.6176 51.4948 87.9496C51.7183 87.6176 51.9417 87.4516 52.1652 87.4516C52.3887 87.4516 52.5004 87.6176 52.668 87.8943V86.5665H49.4835V86.2345H53.3943V86.5665H53.115Z" fill="#231F20"/>
<path d="M56.4111 86.5663V89.4985H56.02V89.2772C56.02 89.0006 55.8524 88.6687 55.5172 88.3367C55.182 88.0048 54.8468 87.8388 54.5674 87.8388C54.3998 87.8388 54.2881 87.8941 54.1764 87.9494C54.0646 88.0601 54.0088 88.1707 54.0088 88.2814C54.0088 88.4474 54.0646 88.558 54.1764 88.6133C54.2881 88.724 54.3998 88.724 54.5116 88.724C54.5674 88.724 54.6792 88.724 54.7909 88.6687L54.9027 89.0559C54.7909 89.1113 54.6233 89.1113 54.3998 89.1113C54.1764 89.1113 54.0088 89.0006 53.8412 88.8346C53.6736 88.6687 53.6177 88.4474 53.6177 88.2261C53.6177 88.0048 53.6736 87.7835 53.8412 87.6175C54.0088 87.4515 54.2322 87.3408 54.4557 87.3408C55.0144 87.3408 55.5172 87.6728 55.9642 88.3367V86.4003H53.2825V86.0684H56.6905V86.4003H56.4111V86.5663Z" fill="#231F20"/>
<path d="M58.2547 89.7199C57.8078 89.7199 57.5284 89.6645 57.4167 89.4985C57.0815 89.1666 56.9139 88.724 56.9139 88.2814C56.9139 88.0048 57.0256 87.6728 57.1932 87.3962C57.3049 87.2302 57.5284 86.9536 57.8078 86.6216H56.6345V86.2897H58.4782V86.6216C58.143 86.7323 57.8636 86.9536 57.6402 87.2855C57.3608 87.6175 57.2491 87.9494 57.2491 88.2814C57.2491 89.0559 57.5843 89.4432 58.2547 89.4432C58.3664 89.4432 58.4223 89.3879 58.534 89.3326V89.7199C58.4782 89.6645 58.3664 89.7199 58.2547 89.7199Z" fill="#231F20"/>
<path d="M58.6459 86.5665V87.8942C59.2046 87.507 59.7633 87.2303 60.2102 87.0644L60.6013 87.5623C60.4337 88.0049 60.3219 88.3922 60.3219 88.6688C60.3219 88.8901 60.3778 89.1667 60.4895 89.4987L60.2102 89.6093C60.0426 89.2221 59.9867 88.9454 59.9867 88.7795C59.9867 88.3922 60.0426 87.9496 60.0985 87.5623C59.7074 87.7283 59.2046 88.0602 58.59 88.5028L58.2548 88.2262V86.5665H57.9755V86.2345H60.8248V86.5665H58.6459Z" fill="#231F20"/>
<path d="M63.7859 86.5663V89.4985H63.3948V89.2772C63.3948 89.0006 63.2272 88.6687 62.892 88.3367C62.5568 88.0048 62.2216 87.8388 61.9422 87.8388C61.7746 87.8388 61.6629 87.8941 61.5511 87.9494C61.4394 88.0601 61.3835 88.1707 61.3835 88.2814C61.3835 88.4474 61.4394 88.558 61.5511 88.6133C61.6629 88.724 61.7746 88.724 61.8863 88.724C61.9422 88.724 62.0539 88.724 62.1657 88.6687L62.2774 89.0559C62.1657 89.1113 61.9981 89.1113 61.7746 89.1113C61.5511 89.1113 61.3835 89.0006 61.2159 88.8346C61.0483 88.6687 60.9924 88.4474 60.9924 88.2261C60.9924 88.0048 61.0483 87.7835 61.2159 87.6175C61.3835 87.4515 61.607 87.3408 61.8305 87.3408C62.3892 87.3408 62.892 87.6728 63.3389 88.3367V86.4003H60.6572V86.0684H64.0652V86.4003H63.7859V86.5663Z" fill="#231F20"/>
<path d="M21.8285 57.2441H0.989514C0.598434 57.2441 0.319092 57.5208 0.319092 57.908V59.5125C0.319092 59.8998 0.598434 60.1764 0.989514 60.1764H16.521V68.6965C16.074 68.0879 15.5712 67.4793 15.0684 66.9261C13.2247 65.1003 11.2693 64.1598 9.25805 64.1598C7.63787 64.1598 6.24115 64.9344 5.12378 66.4281C4.22989 67.6453 3.6712 69.0838 3.6712 70.3563C3.6712 71.7394 3.83881 73.4545 4.95618 75.0036C6.24115 76.94 8.25242 77.5485 10.0961 77.5485C12.4984 77.5485 14.4538 75.8888 14.4538 73.8417C14.4538 72.5693 13.8393 71.5734 12.666 70.9095L11.5487 70.2456V71.5181C11.5487 71.6287 11.5487 71.6841 11.4928 71.7947C11.4928 71.85 11.4369 71.9607 11.4369 71.9607C11.3252 72.4033 10.4872 73.1778 9.59327 73.1778C8.81111 73.1778 8.02895 72.8459 7.582 72.4033C7.24679 72.0713 7.13505 71.5181 7.13505 71.0202C7.13505 70.4116 7.35852 69.8583 7.80547 69.3604C8.30829 68.7518 8.81111 68.4752 9.59327 68.4752C11.6604 68.4199 13.4482 69.4157 14.8449 71.4628C15.9623 73.1778 16.521 74.8376 16.5768 76.608L16.6327 80.9234L19.7055 82.8045C19.8172 82.8598 19.9289 82.9151 20.0407 82.9151C20.4318 82.9151 20.7111 82.6385 20.7111 82.2512V60.2317H21.9402C22.3313 60.2317 22.6106 59.9551 22.6106 59.5678V57.9634C22.4989 57.5208 22.1637 57.2441 21.8285 57.2441Z" fill="#EB2127"/>
<path d="M63.4506 57.244H44.9023H42.3882H37.0248C36.6337 57.244 36.3544 57.5206 36.3544 57.9079V60.7848C33.8403 58.1292 31.5497 56.8014 29.4267 56.8014C27.4713 56.7461 25.7952 57.244 24.3985 58.2952C23.0018 59.3464 22.2755 60.6742 22.2755 62.1679C22.2755 66.76 27.4713 66.7046 28.7004 65.9854C28.9239 65.8747 29.2032 65.7088 29.5384 65.7088C30.5999 65.7088 30.9351 66.4833 30.9351 67.2579C30.9351 68.3091 29.4267 69.2496 27.583 69.2496C26.5774 69.2496 25.907 68.973 25.5159 68.3644L24.7337 67.1472L24.175 68.475C24.0633 68.807 23.8957 69.1943 23.8957 69.6922C23.8957 70.7434 24.4544 71.7946 25.46 72.6244C26.4098 73.399 27.5272 73.7863 28.8121 73.7863C30.7675 73.7863 32.3877 73.067 33.4492 71.6839C34.3431 70.5774 34.7901 69.1943 34.7901 67.7005C34.7901 66.8153 34.4549 65.9854 33.7844 64.9895C32.9464 63.7724 31.9408 63.2191 30.7675 63.2191C30.3764 63.2191 29.8178 63.3851 29.3149 63.4958C29.0915 63.5511 28.7004 63.6617 28.6445 63.6617C28.4769 63.6617 28.1976 63.5511 27.9182 63.2745C27.7506 63.1085 27.4713 62.7765 27.5272 62.2786C27.583 61.1168 28.5887 60.0103 30.4323 60.0103H30.4882C31.7173 60.0103 32.9464 60.6188 34.1196 61.7253C35.0694 62.6105 35.7957 63.5511 36.3544 64.5469V80.8126L39.4271 82.583C39.5389 82.6383 39.6506 82.6937 39.7624 82.6937C40.1534 82.6937 40.4328 82.417 40.4328 82.0297V60.1762H42.3323H44.8464H45.1257V74.2842L48.8689 75.778C48.9248 75.8333 49.0365 75.8333 49.0924 75.8333C49.4276 75.8333 49.707 75.5567 49.7628 75.2801V75.1694C50.3774 71.02 52.221 68.1431 55.3497 66.3727C55.3497 66.594 55.3497 66.8706 55.3497 67.1472C55.3497 67.7005 55.4055 69.2496 55.4055 70.0795C55.4055 70.5221 55.4614 70.9094 55.5173 71.186C55.5173 72.7904 55.7408 75.2801 56.2994 77.1058C57.3051 80.6466 59.037 81.4212 60.3778 81.4212C60.4337 81.4212 60.4337 81.4212 60.4896 81.4212C61.2159 81.4212 61.8304 81.2552 62.2215 80.8679C62.445 80.6466 62.7243 80.204 62.7243 79.5401C62.7243 78.8762 62.6126 78.3783 62.445 78.0463L62.1656 77.5484L61.6069 77.659C60.9365 77.825 60.7131 77.825 60.6572 77.825H60.5454C60.3778 77.825 60.322 77.7697 60.2102 77.7697C59.9868 77.659 59.5957 77.3271 59.3163 76.2206C59.0929 75.3907 59.037 74.2842 59.037 73.6756C59.037 69.1389 59.9868 65.6534 61.4393 64.8789L61.4952 64.8236C61.7187 64.7129 61.8863 64.4916 61.8863 64.215C61.8863 64.1043 61.8304 63.9937 61.8304 63.883L61.7746 63.8277C61.0483 62.4446 59.5398 61.3934 57.4168 60.8401L57.2492 60.7848L57.0816 60.8401C55.4614 61.1168 53.4501 62.2233 50.9919 64.2703C50.3774 64.8236 49.7628 65.3215 49.2041 65.8194V60.1762H63.4506C63.8417 60.1762 64.121 59.8996 64.121 59.5123V57.9079C64.121 57.5206 63.8417 57.244 63.4506 57.244Z" fill="#EB2127"/>
<path d="M54.1206 28.2534C54.1206 28.9173 54.0647 29.5812 54.0647 30.2451C53.8412 33.0667 53.1149 35.7776 51.9976 38.2119C51.5506 39.2078 51.0478 40.1483 50.4333 41.0335C46.1314 47.7832 38.5333 52.2646 29.8736 52.2646C26.1863 52.2646 22.6666 51.4347 19.538 49.9962C11.3253 46.1788 5.62671 37.88 5.62671 28.2534C5.62671 18.8481 11.1018 10.6599 19.091 6.73181C18.4206 7.56169 17.8619 8.39157 17.3591 9.3321C17.3032 9.38743 17.2474 9.49808 17.2474 9.5534C16.9121 9.83003 16.6328 10.1067 16.2976 10.3833C15.9065 10.7152 15.5713 11.1025 15.2361 11.4345C15.1802 11.4898 15.0685 11.6004 15.0126 11.7111C14.9567 11.8217 14.845 11.8771 14.7891 11.9877C14.6774 12.1537 14.5098 12.2643 14.3981 12.4303C14.1746 12.7069 13.8952 13.0389 13.6718 13.3155C12.6661 14.6433 11.8281 16.0818 11.1577 17.5756C11.1018 17.7416 11.046 17.8522 10.9901 18.0182C10.9342 18.1842 10.8225 18.3501 10.7666 18.5714C10.7107 18.6821 10.7107 18.7374 10.6549 18.8481C10.5431 19.1247 10.4873 19.4013 10.3755 19.6779C10.3197 19.8439 10.2638 20.0652 10.2079 20.2312C10.1521 20.3418 10.1521 20.4525 10.1521 20.5078C10.0962 20.6738 10.0403 20.8951 9.98445 21.0611C9.81685 21.6697 9.70511 22.2782 9.64924 22.8868C9.64924 23.0528 9.59337 23.2188 9.59337 23.3847C9.59337 23.4954 9.5375 23.606 9.5375 23.772C9.5375 23.938 9.48164 24.1593 9.48164 24.3253V24.3806C9.48164 24.5466 9.48164 24.7679 9.42577 24.9338C9.42577 25.2658 9.42577 25.5424 9.42577 25.8744C9.42577 32.4028 12.4427 38.2673 17.1915 42.14C20.8229 45.1276 25.5159 46.898 30.5999 46.898C35.237 46.898 39.483 45.4042 43.0027 42.9146C45.5727 41.0888 47.6957 38.7099 49.2041 35.9989C49.4276 35.667 49.5952 35.2797 49.7628 34.8924C49.7628 34.8924 49.7628 34.8924 49.7628 34.8371C50.9919 32.2921 51.6624 29.5258 51.7741 26.5936C51.7741 26.3723 51.7741 26.151 51.7741 25.9297C51.7741 25.2658 51.7182 24.5466 51.6624 23.8827C51.7182 23.938 51.7182 23.938 51.7741 23.9933C52.1093 24.2699 52.4445 24.5466 52.7239 24.8232C53.0032 24.3253 53.3384 23.8827 53.6736 23.3847C53.8412 24.3253 54.0088 25.2658 54.0647 26.2063C54.1206 26.8149 54.1206 27.5341 54.1206 28.2534Z" fill="#EB2127"/>
<path d="M51.7182 25.8193C51.7182 26.0406 51.7182 26.2619 51.7182 26.4832C51.7182 30.7432 49.9304 34.3394 49.7069 34.7266C49.7069 34.7266 49.7069 34.7266 49.7069 34.782C49.5393 35.1693 49.3159 35.5012 49.1482 35.8885C47.6398 38.6547 45.5168 40.9784 42.9468 42.8041C39.483 45.2938 35.1811 46.7876 30.544 46.7876C25.46 46.7876 20.767 45.0172 17.1356 42.0296C12.3868 38.1568 9.36987 32.3477 9.36987 25.7639C9.36987 25.432 9.36987 25.1554 9.36987 24.8234C9.36987 24.6574 9.36987 24.4361 9.42574 24.2702V24.2148C9.42574 24.0489 9.48161 23.8276 9.48161 23.6616C9.48161 23.5509 9.48161 23.4403 9.53748 23.2743C9.53748 23.1083 9.59335 22.9423 9.59335 22.7764C9.70508 22.1678 9.81682 21.5592 9.92856 20.9506C9.98443 20.7847 10.0403 20.5634 10.0962 20.3974C10.0962 20.2867 10.152 20.1761 10.152 20.1208C10.2079 19.9548 10.2638 19.7335 10.3196 19.5675C10.4314 19.2909 10.4872 19.0142 10.599 18.7376C10.6548 18.627 10.6548 18.5716 10.7107 18.461C10.7666 18.295 10.8225 18.0737 10.9342 17.9077C10.9901 17.7418 11.0459 17.6311 11.1018 17.4651C11.7722 15.916 12.6102 14.4776 13.6159 13.2051C13.8394 12.8731 14.0628 12.5965 14.3422 12.3199C14.4539 12.1539 14.5656 12.0433 14.7332 11.8773C14.7891 11.7666 14.9009 11.7113 14.9567 11.6007C15.0126 11.49 15.1243 11.4347 15.1802 11.3794C15.5154 10.9921 15.9065 10.6601 16.2417 10.3282C16.521 10.0515 16.8563 9.77492 17.1915 9.49829C17.1356 9.55362 17.1356 9.66427 17.0797 9.71959C17.0239 9.83024 16.968 9.88557 16.968 9.99622C15.7389 12.4859 14.9567 15.3628 14.6215 18.461C14.5656 19.2909 14.5098 20.1208 14.5098 21.006C14.5098 31.9604 20.9905 40.8678 29.0356 40.8678C29.0915 40.8678 29.0915 40.8678 29.1473 40.8678C29.3708 40.8678 29.6501 40.8678 29.8736 40.8678C31.0469 40.8678 32.1642 40.7018 33.2257 40.4252C38.645 38.9314 42.6675 34.0074 42.6675 28.1983C42.6675 28.0876 42.6675 27.977 42.6675 27.8663C42.5558 24.3808 41.1032 21.2826 38.7008 19.0696C40.3769 19.1249 41.9412 19.3462 43.5055 19.7335C46.4666 20.508 49.2041 21.8912 51.4947 23.7169C51.5506 23.7169 51.5506 23.7722 51.6065 23.8276C51.7182 24.4915 51.7182 25.1554 51.7182 25.8193Z" fill="#F58220"/>
<path d="M46.0195 12.7626C46.0195 12.7626 28.7003 9.55371 20.5994 24.4362C20.5994 24.4362 22.0519 14.1457 34.3989 9.44306L31.9407 4.90639C31.9407 4.90639 36.913 0.480361 45.5726 1.64219L46.0195 12.7626Z" fill="#EB2127"/>
<path d="M24.5662 20.7293C24.5662 20.7293 31.4939 11.7666 47.3046 14.0902L47.137 8.88965C47.137 8.88965 53.7854 8.66835 59.0929 13.2604L52.4445 23.0529C52.4445 23.0529 47.9192 17.8524 38.5892 17.7417C34.7342 17.6864 30.0971 18.1843 24.5662 20.7293Z" fill="#F58220"/>
<path d="M17.7502 28.8068C17.7502 28.8068 9.87273 11.7666 28.1976 0.756836L32.5554 8.72368C32.5554 8.72368 29.5943 9.71954 26.4098 12.4858C23.0018 15.418 19.2586 20.4527 17.7502 28.8068Z" fill="#F58220"/>
<path d="M51.774 23.9382C51.8299 24.6021 51.8857 25.2107 51.8857 25.8746C51.8857 26.0959 51.8857 26.3172 51.8857 26.5385V26.5938C51.774 29.5261 51.1036 32.2923 49.8745 34.8926C49.8745 34.8926 49.8745 34.8926 49.8745 34.948C49.7069 35.2799 49.5393 35.6672 49.3158 36.0545C47.8073 38.7654 45.6285 41.1997 43.0585 43.0255C39.4271 45.6258 35.1252 47.0089 30.5998 47.0089C25.6834 47.0089 20.8787 45.2938 17.0796 42.2509C12.1074 38.2122 9.25806 32.2923 9.25806 25.9299C9.25806 25.6533 9.25806 25.3767 9.25806 24.9894C9.25806 24.8234 9.25806 24.6021 9.31393 24.4361C9.31393 24.2148 9.36979 24.0489 9.36979 23.8829C9.36979 23.7722 9.36979 23.6616 9.42566 23.5509V23.4956C9.42566 23.3296 9.48153 23.219 9.48153 23.053C9.59327 22.4444 9.705 21.8358 9.81674 21.2273C9.87261 21.0613 9.87261 20.8953 9.92848 20.7847V20.674C9.92848 20.5634 9.98435 20.4527 9.98435 20.3974C10.0402 20.2314 10.0961 20.0101 10.152 19.8441C10.2637 19.5122 10.3196 19.2356 10.4313 19.0143C10.4313 18.9036 10.4872 18.8483 10.543 18.7376C10.5989 18.5717 10.7106 18.3503 10.7665 18.1844C10.8224 18.0737 10.8782 17.9077 10.9341 17.7418C11.6045 16.248 12.4426 14.7542 13.4482 13.4264C13.6717 13.0944 13.951 12.8178 14.1745 12.5412C14.2862 12.4305 14.398 12.2646 14.5656 12.0986C14.6214 12.0433 14.7332 11.9326 14.789 11.822C14.8449 11.7666 14.9566 11.656 15.0125 11.5453C15.3477 11.1581 15.7388 10.8261 16.1299 10.4941C16.4092 10.2175 16.7444 9.94089 17.0796 9.66427L17.3031 9.49829L17.0796 9.77492V9.83024C16.8003 10.0515 16.5768 10.2728 16.3534 10.4941C15.9623 10.8261 15.6271 11.2134 15.2919 11.5453C15.1801 11.656 15.1243 11.7113 15.0684 11.7666C14.9566 11.8773 14.9008 11.9326 14.8449 12.0433C14.6773 12.2092 14.5656 12.3199 14.4538 12.4859C14.2304 12.7625 14.0069 13.0391 13.7275 13.3711C12.7219 14.6989 11.8839 16.1373 11.2135 17.6311C11.1576 17.7971 11.1017 17.9631 11.0458 18.0737C10.99 18.2397 10.9341 18.4057 10.8224 18.627C10.7665 18.7376 10.7665 18.793 10.7106 18.9036C10.5989 19.1802 10.543 19.4569 10.4313 19.7335C10.3754 19.8995 10.3196 20.1208 10.2637 20.2867C10.2078 20.3974 10.2078 20.508 10.2078 20.5634V20.674C10.152 20.84 10.152 20.9506 10.0961 21.1166C9.92848 21.7252 9.81674 22.3338 9.76087 22.9424C9.76087 23.1083 9.705 23.219 9.705 23.385V23.4403C9.705 23.5509 9.70501 23.6616 9.64914 23.7722C9.64914 23.9382 9.59327 24.1042 9.59327 24.3255H9.48153H9.59327C9.59327 24.3255 9.59327 24.3255 9.59327 24.3808C9.59327 24.5468 9.59327 24.7681 9.5374 24.9341C9.5374 25.266 9.5374 25.598 9.5374 25.8746C9.5374 32.1817 12.3308 38.0462 17.2473 42.0296C20.9904 45.0725 25.7393 46.7323 30.5998 46.7323C35.0693 46.7323 39.3153 45.3491 42.9468 42.8042C45.4609 40.9784 47.5839 38.5994 49.0923 35.8885C49.3158 35.5012 49.4834 35.1693 49.651 34.782V34.7267C50.8801 32.1264 51.5505 29.3601 51.6623 26.4832V26.4279C51.6623 26.2066 51.6623 25.9852 51.6623 25.7639C51.6623 25.1 51.6064 24.4361 51.5505 23.7722V23.6616L51.774 23.9382Z" fill="#F58220"/>
<path d="M24.7336 33.0669L25.4041 33.6202C25.5717 33.5095 25.851 33.3436 26.0186 33.0669C26.1304 32.901 26.0745 32.735 26.0186 32.735H24.9012C24.8454 32.735 24.7895 32.735 24.7895 32.7903C24.7336 32.8456 24.7336 32.9563 24.7336 33.0669Z" fill="#EB2127"/>
<path d="M25.7952 33.8966L26.1862 34.3945C26.1862 34.1732 26.1304 33.8413 26.1304 33.62C26.0186 33.62 25.9069 33.7306 25.7952 33.8966Z" fill="#EB2127"/>
<path d="M24.7336 33.5649C24.7336 33.7862 24.6777 34.1182 24.6777 34.3395L25.0688 33.8416C24.9571 33.7309 24.7895 33.6203 24.7336 33.5649Z" fill="#EB2127"/>
<path d="M29.259 24.6022C29.2031 24.6022 29.2031 24.6022 29.259 24.6022C29.0355 24.6575 28.0857 25.2661 27.8064 25.4321C27.8064 25.4321 27.8064 25.4321 27.8623 25.4874C27.9181 25.5427 28.0299 25.6534 28.0857 25.6534C28.2533 25.5427 29.1472 25.0448 29.3707 24.8235C29.4266 24.7682 29.4266 24.7128 29.4266 24.6575C29.3707 24.6575 29.3148 24.6022 29.259 24.6022Z" fill="#EB2127"/>
<path d="M29.8734 24.2148C29.8734 24.2701 29.8734 24.3254 29.8175 24.4361C29.7617 24.6021 29.7058 24.8787 29.7058 24.9893C29.8175 24.934 29.9852 24.768 30.041 24.4914C30.041 24.3808 30.041 24.2701 30.041 24.2148C29.9852 24.2148 29.9852 24.1594 29.8734 24.2148C29.9293 24.1594 29.8734 24.2148 29.8734 24.2148Z" fill="#EB2127"/>
<path d="M30.4881 25.7639C30.8791 25.7639 31.4937 26.5385 31.6613 26.7598C31.8289 27.0364 31.8848 27.7003 31.9406 28.4196V28.4749C33.6167 28.2536 33.9519 27.9216 34.1195 26.7598C34.343 25.4873 33.3932 24.1042 33.2256 24.0489C33.2256 24.0489 33.058 23.9935 32.3876 23.9935C31.6613 23.9935 30.7115 24.0489 30.3763 24.0489C30.3763 24.8234 30.9909 24.9341 31.2702 24.9894C31.3819 24.9894 31.4937 25.0447 31.4937 25.1V25.2107H31.3819C31.2702 25.2107 31.2143 25.2107 31.1026 25.2107C30.5439 25.2107 30.3763 24.9894 30.2646 24.8787C30.097 25.1 29.7059 25.432 29.4824 25.598C29.4824 25.8193 29.4824 26.5385 29.4824 26.8151C29.5383 26.8151 29.65 26.8704 30.0411 26.8704C30.1528 26.8704 30.2087 26.8704 30.2646 26.8704C30.2646 26.6491 30.3204 26.0406 30.3204 25.7639V25.6533L30.4881 25.7639Z" fill="#EB2127"/>
<path d="M28.3093 26.0404C28.2534 26.2063 28.2534 26.4276 28.3651 26.5936C28.4769 26.7596 28.7004 26.8702 29.0914 26.8702C29.1473 26.483 29.1473 25.7637 29.1473 25.3765C28.868 25.5978 28.4769 25.9297 28.3093 26.0404Z" fill="#EB2127"/>
<path d="M27.7506 27.2022C29.259 28.2534 30.0412 28.4747 30.3205 28.5853V27.4235C30.2647 27.3682 30.0412 27.3682 29.8736 27.3682C29.706 27.3682 29.5384 27.3682 29.3708 27.3682C28.7004 27.3129 28.0858 26.9256 27.9182 26.7043V26.649V26.5936C27.9182 25.7084 27.583 25.6531 27.3595 25.5978H27.3036C27.0802 25.5978 26.8567 25.7638 26.8567 25.8744C26.8567 25.9297 26.8567 25.9297 26.8567 25.9297C26.8567 25.9851 26.9684 25.9851 27.1919 26.0404C27.3595 26.0404 27.5271 26.2617 27.583 26.483C27.5271 26.8703 27.583 26.9809 27.7506 27.2022Z" fill="#EB2127"/>
<path d="M26.9683 27.3682C26.9683 27.3682 27.0242 27.3682 26.9683 27.3682H27.0242L27.0801 27.4236C27.0801 27.4789 27.1359 27.4789 27.1359 27.5342C27.1918 27.6449 27.2477 27.7002 27.3035 27.7002C27.3035 27.7002 27.3594 27.6449 27.3594 27.5895C27.4153 27.4236 27.3594 27.1469 27.2477 26.981C27.0242 26.649 26.8566 26.5384 26.5772 26.483C26.4096 26.483 25.9068 26.815 25.851 27.0916C25.851 27.1469 25.851 27.2576 25.9627 27.3682C26.1303 27.2023 26.242 27.0363 26.242 27.0363L26.4096 27.1469C26.4096 27.2023 26.3538 27.3682 26.4096 27.4789C26.4096 27.5342 26.4655 27.5895 26.5214 27.5895C26.5772 27.5895 26.5772 27.5895 26.6331 27.5895C26.689 27.5895 26.689 27.5895 26.689 27.5342C26.8007 27.4789 26.8566 27.3682 26.9683 27.3682Z" fill="#EB2127"/>
<path d="M30.7675 26.5938V28.8068C31.1027 28.6961 31.382 28.5301 31.4937 28.4748C31.382 27.3683 31.1027 26.7044 30.7675 26.5938Z" fill="#EB2127"/>
<path d="M28.812 28.4194C29.0355 28.862 29.4824 29.4706 29.5942 29.5813C29.65 29.5813 29.7618 29.4706 30.0411 29.1387C29.65 28.9174 29.1472 28.5854 28.812 28.4194Z" fill="#EB2127"/>
<path d="M31.8289 28.8619C31.5496 29.0832 30.9909 29.3045 30.5998 29.4705C30.4881 29.5258 30.3763 29.5258 30.3205 29.5812C30.2646 29.5812 30.2087 29.6918 30.2087 29.8025C30.2087 29.8578 30.2087 29.9131 30.2087 29.9684C30.4322 29.9684 31.8848 29.3599 32.22 29.2492C32.22 29.1386 31.9407 28.9173 31.8289 28.8619Z" fill="#EB2127"/>
<path d="M37.9186 35.7778C37.9745 36.1098 37.9745 36.2757 37.9745 36.4417C38.0862 36.3864 38.198 36.3311 38.2538 36.2204C38.3097 36.1098 38.3097 35.6672 38.3097 35.3905C38.3097 35.1139 38.3097 35.0032 38.3097 34.8926C38.3097 34.8373 38.3097 34.7819 38.3656 34.7266C38.4214 34.5606 38.5332 34.1734 38.4773 34.0627C38.4773 34.0627 38.4214 34.0074 38.3097 34.0074C38.1421 34.0074 37.9745 34.0074 37.751 34.0074C37.1923 34.0074 35.9073 34.0074 35.4604 33.8414C35.0693 33.7308 34.2313 33.5648 33.7285 33.5648C33.505 33.5648 33.4491 33.5648 33.3933 33.6201C33.1139 33.7861 32.7787 34.2287 32.7787 34.3393V34.3947H32.7228H32.667C32.6111 34.3947 32.5552 34.3947 32.4994 34.3393C32.4435 34.2287 32.4435 34.0627 32.5552 33.7861C32.5552 33.7308 32.6111 33.6754 32.6111 33.6201C32.7787 33.2328 33.0581 32.403 33.0581 31.905C32.5552 32.1263 31.5496 32.6796 31.2703 32.8456C31.3261 33.0115 31.4937 33.4541 31.7731 34.0074C32.1642 34.8373 32.3876 35.0586 32.4435 35.0586C32.6111 35.0586 33.1698 34.9479 33.7843 34.8926C34.79 34.7266 36.075 34.5053 36.8012 34.5053C36.9688 34.5053 37.0806 34.5053 37.1923 34.5606H37.2482V34.616L37.3041 34.7266C37.6393 35.1139 37.9186 35.5012 37.9186 35.7778Z" fill="#EB2127"/>
<path d="M25.7392 28.6961C25.6834 28.6961 25.5157 28.8067 25.5157 29.1387C25.5157 29.194 25.5716 29.2493 25.5716 29.2493C25.5716 29.2493 25.6275 29.194 25.6834 29.0834V29.028H25.7392H28.4768C28.4209 28.9174 28.365 28.8067 28.3092 28.6961C27.7505 28.6408 25.7392 28.6961 25.7392 28.6961Z" fill="#EB2127"/>
<path d="M28.1973 24.2149C28.1973 24.2149 26.7448 24.5468 26.7448 23.7723C26.7448 23.4956 26.9124 23.4403 27.08 23.4403C27.08 23.3297 26.8006 22.8871 27.4152 22.7764C27.6386 22.4445 27.8063 22.2232 27.918 22.0572C27.9739 21.8912 28.1415 21.6146 28.756 21.7252C29.3147 21.8359 29.9851 22.3891 30.041 22.5551C30.3762 22.5551 30.7673 22.6104 30.5997 22.6658C30.4879 22.7764 30.4321 22.8871 30.4321 22.8871C30.4321 22.8871 30.6555 22.9977 30.041 22.9977C30.041 23.1084 30.1527 23.1637 30.2645 23.219C30.3762 23.2743 30.2086 23.3297 30.2645 23.385C30.3203 23.385 30.3762 23.717 30.041 23.6063C29.7617 23.4956 29.7058 23.385 29.6499 23.385C29.594 23.385 29.3706 23.4403 29.3706 23.4956C29.4264 23.551 29.7058 23.7723 29.3147 23.8276C29.2588 23.8829 29.4264 23.9936 29.2588 24.0489C29.0912 24.1042 28.4767 24.6022 28.1973 24.7128C27.918 24.7128 27.8063 24.6575 27.8063 24.4915C27.8063 24.3809 27.9739 24.2702 28.1415 24.2702C28.2532 24.2702 28.2532 24.2149 28.1973 24.2149Z" fill="#EB2127"/>
<path d="M25.1247 29.5814H23.8397L23.7838 29.0835H25.1247V29.5814Z" fill="#EB2127"/>
<path d="M33.8401 29.5258H38.5331V28.8619H32.8904L33.8401 29.5258Z" fill="#EB2127"/>
<path d="M28.9796 30.9091C29.4824 30.9644 30.5998 31.241 30.9909 31.3517C31.2144 31.241 31.382 31.075 31.382 31.0197L31.3261 30.8537H31.4937C31.6054 30.8537 31.7172 30.9091 31.773 30.9644C31.8848 31.0197 31.9965 31.075 32.1083 31.075C32.1641 31.075 32.1641 31.075 32.1641 31.075C32.3876 30.9644 33.505 30.1898 33.7843 29.9132C33.505 29.6919 33.0022 29.4153 32.8345 29.4153C32.7787 29.4153 32.6111 29.5259 32.3876 29.5813C31.8848 29.8026 30.9909 30.1898 30.3205 30.1898C30.097 30.1898 29.8735 30.1345 29.7059 30.0792C29.5942 30.0792 29.2031 30.3558 28.9796 30.6878C28.9796 30.7984 28.9796 30.9091 28.9796 30.9091Z" fill="#EB2127"/>
<path d="M29.259 31.3517C29.3707 31.3517 30.8233 31.905 31.1585 31.8496C31.4937 31.7943 31.6055 31.4624 31.7731 31.4624C31.9966 31.4624 32.0524 31.6837 32.4435 31.4624C32.7787 31.2411 33.3933 30.7431 33.505 30.5771C33.505 30.7984 33.505 31.407 32.1642 32.0156C30.8233 32.6242 27.8064 33.4541 27.6947 33.8967C27.8064 33.952 28.1975 33.8413 28.4769 33.6754C28.6445 33.786 28.9238 34.2286 28.8679 34.8372C28.8121 35.5011 28.3092 36.6076 28.3092 36.9396C28.3092 37.2715 28.2534 38.6546 28.3092 38.8206C28.3092 38.9866 28.5886 39.7611 28.1975 39.7058C27.8064 39.6505 27.583 39.6505 27.4153 39.6505C27.2477 39.7058 26.9684 39.9271 26.6891 39.8718C26.4097 39.8165 25.9628 39.7058 25.9628 39.5398C25.9628 39.4292 26.298 39.4292 26.5215 39.3185C26.8008 39.2079 26.9684 38.9313 27.4712 38.7653C27.4712 38.4333 27.3036 35.999 27.3036 35.5011C27.3036 35.0032 27.136 33.952 27.3595 33.4541C27.5271 33.0115 28.7003 31.3517 29.259 31.3517Z" fill="#EB2127"/>
<path d="M29.0355 29.36C29.0913 29.4707 29.1472 29.6367 29.2589 29.7473L26.2979 29.526C26.2979 29.526 25.9627 29.3047 26.0744 29.2494L29.0355 29.36Z" fill="#EB2127"/>
<path d="M23.0018 29.5813H23.6163C23.6163 29.5813 23.7839 29.526 23.6163 29.2494C23.4487 29.0281 23.0576 28.9174 23.337 28.4748C23.0576 28.4195 22.6107 28.3642 22.7224 29.2494H22.4431C22.4431 29.2494 22.3314 28.7515 21.6609 28.7515C20.9905 28.7515 19.3145 29.4154 19.3145 29.4154C19.3145 29.4154 21.214 29.9133 21.6609 29.9133C22.1637 29.9133 22.4431 29.4707 22.4431 29.4707H22.6666C22.6666 29.4707 22.7783 29.8026 22.89 29.9686C22.89 30.1899 22.89 30.5219 22.89 30.5219C22.89 30.5219 22.6107 30.6325 22.6666 30.9645C22.7224 31.2964 22.89 31.2964 22.9459 31.2964C23.0018 31.2964 23.0576 31.1858 23.337 31.1858C23.4487 31.0751 23.3929 30.6325 23.1694 30.5772C23.1694 30.4112 23.1694 30.1899 23.1694 30.1899C23.1694 30.1899 23.3929 30.0239 23.3929 29.9133C23.3929 29.8026 23.0018 29.7473 23.0018 29.5813Z" fill="#EB2127"/>
<path d="M26.5773 32.403C26.8007 32.2924 26.8566 32.0158 26.8566 31.9604C26.8566 31.9604 26.8566 30.6326 26.8566 30.2454C26.8566 29.8027 26.1303 29.5261 26.0745 29.5261H26.0186H25.9627C25.9068 29.5814 25.6834 29.7474 25.5716 29.7474C25.404 29.7474 25.2923 29.6921 25.1247 29.5261H25.0688C24.4543 29.5261 24.1749 30.2454 24.1749 30.3007C24.1749 30.4667 24.1191 31.6838 24.1749 31.9051C24.2308 32.0711 24.3984 32.2924 24.4543 32.3477C24.3425 32.7903 23.728 35.0587 24.566 35.3353V35.6119H26.5214V35.28C27.1918 34.948 26.689 32.9563 26.5773 32.403ZM24.2867 30.3007C24.3425 30.19 24.566 29.6921 25.013 29.6921C25.2364 29.9134 25.3482 29.9134 25.5716 29.9134C25.7392 29.9134 25.9627 29.7474 26.0745 29.6921C26.2979 29.8027 26.689 30.0241 26.689 30.2454C26.689 30.6326 26.689 31.7945 26.689 31.9604C26.689 32.0158 26.6331 32.1817 26.5214 32.2371H26.1303V31.5178H24.7895V32.2371H24.5101C24.4543 32.1817 24.2867 32.0158 24.2867 31.8498C24.2308 31.6838 24.2308 30.8539 24.2867 30.3007ZM25.6834 35.0587H25.2364C25.1247 35.0587 25.0688 34.948 25.0688 34.8927C25.0688 34.782 25.1806 34.7267 25.2364 34.7267H25.6834C25.7951 34.7267 25.851 34.8374 25.851 34.8927C25.851 35.0033 25.7951 35.0587 25.6834 35.0587ZM26.4097 35.114L25.4599 34.0628L24.566 35.1693C23.9514 35.0033 24.3425 33.1776 24.566 32.403L26.4097 32.4584C26.5773 33.1223 26.9684 34.8374 26.4097 35.114Z" fill="#EB2127"/>
<path d="M26.0187 31.2412H26.1304V31.1305C26.1304 31.0752 26.0745 31.0199 26.0187 31.0199H24.9013C24.8454 31.0199 24.7896 31.0752 24.7896 31.1305V31.2412H24.9013H26.0187Z" fill="#EB2127"/>
<path d="M24.3984 35.7777H24.2866V35.8884C24.2866 35.9437 24.3425 35.999 24.3984 35.999H26.4655C26.5214 35.999 26.5772 35.9437 26.5772 35.8884V35.7777H26.4655H24.3984Z" fill="#EB2127"/>
</g>
<defs>
<clipPath id="clip0_2_6119">
<rect width="63.8018" height="88.9631" fill="white" transform="translate(0.319092 0.756836)"/>
</clipPath>
</defs>
</svg>
