<svg xmlns="http://www.w3.org/2000/svg" viewBox="0 0 122.58 122.58"><defs><style>.a,.b{fill:#e94c2d;}.b{fill-rule:evenodd;}.c{fill:none;stroke:#e94c2d;stroke-linecap:round;stroke-miterlimit:10;stroke-width:2.58px;}</style></defs><path class="a" d="M15.9,52.65S1.72,48.73,1.78,35.47c0-1.9-.3-18.28,23.57-32a24.69,24.69,0,0,0-.25,3.38c.06,1.35.43,5.34,4.36,11.23.82,1.22,8,9.81,7.67,18-.07,1.79.18,12.21-10.74,16.5.92-1.41,3.87-5.15,3.8-9.57,0-1.05-.06-3.93-3.8-9.7a8.13,8.13,0,0,1-1.47-4.17c-.25.06-1.35.8-1.78,3.81-.12.79-.12,3-.12,3s-2.64-1.72-3.2-9.39c-.07-1.1.25-7.73.92-9.26-1.1,1-8.71,5.89-9.51,18.78A33.43,33.43,0,0,0,15.9,52.65Z"/><path class="a" d="M113.11,1.06c-2.49,3.78-4.92,7.49-7.36,11.21s-4.88,7.43-7.38,11.22h11.4L88.11,53.58l-.07,0c3.35-7.84,6.69-15.67,10-23.56H88c.07-.19.11-.33.16-.46q5-14,9.89-28.06a.53.53,0,0,1,.6-.42h14.48Z"/><path class="b" d="M116.3,110.13a12.26,12.26,0,0,0-4.15,7.26,4,4,0,0,0,4.15,4.14c.68,0,4,.15,4.49-4.14C120.89,116.45,119.52,112.84,116.3,110.13Z"/><path class="b" d="M113.88,94.58h-9c-1.19-2-4.15-2.76-4.15-2.76V87.67h2.42a3.29,3.29,0,0,0,3.11,1.39c3,0,3.11-2.85,3.11-3.46a3.14,3.14,0,0,0-3.11-3.45c-2.32,0-2.76,1.38-2.76,1.38H94.19a3.26,3.26,0,0,0-2.76-1.38,3.63,3.63,0,0,0-3.81,3.45c.28,3.4,2.91,3.46,3.46,3.46a3.65,3.65,0,0,0,3.11-1.39h2.42v4.49a5,5,0,0,0-3.8,2.42H80.71V91.82A2.91,2.91,0,0,0,78,88.71H76.57v21.77c3.66,0,4.14-1.73,4.14-2.77V104.6H92.46a7.35,7.35,0,0,0,6.22,3.11,7.08,7.08,0,0,0,6.22-3.11h4.84c1,0,1,.55,1,1.38v3.11h10v-7.6C120.79,97.49,115.68,94.58,113.88,94.58Z"/><path class="a" d="M8.69,79.09,6.77,82.25s-7.31,10,8.35,25.79h0l.07.08a.46.46,0,0,1,.07.07h0c15.77,15.66,25.79,8.35,25.79,8.35l3.16-1.92a3.73,3.73,0,0,0,.4-5.61l-3.77-3.77A3.73,3.73,0,0,0,36,104.9l-4,2.56s-2.69,1.59-10.22-5.91-5.91-10.22-5.91-10.22l2.56-4a3.72,3.72,0,0,0-.35-4.86L14.3,78.69A3.73,3.73,0,0,0,8.69,79.09Z"/><path class="a" d="M36.25,96.57a.75.75,0,0,1-.52-.21.74.74,0,0,1,0-1,5.28,5.28,0,1,0-7.46-7.46.73.73,0,0,1-1-1,6.73,6.73,0,1,1,9.52,9.52A.71.71,0,0,1,36.25,96.57Z"/><path class="a" d="M39,99.27A.73.73,0,0,1,38.43,98,9.09,9.09,0,1,0,25.58,85.17a.73.73,0,1,1-1-1A10.55,10.55,0,0,1,39.46,99.06.73.73,0,0,1,39,99.27Z"/><path class="a" d="M41.69,102a.7.7,0,0,1-.51-.22.72.72,0,0,1,0-1A13,13,0,0,0,22.83,82.43a.73.73,0,1,1-1-1,14.43,14.43,0,1,1,20.41,20.4A.7.7,0,0,1,41.69,102Z"/><line class="c" x1="1.29" y1="61.29" x2="121.29" y2="61.29"/><line class="c" x1="61.29" y1="1.29" x2="61.29" y2="121.29"/></svg>