<svg width="24" height="25" viewBox="0 0 24 25" fill="none" xmlns="http://www.w3.org/2000/svg">
<path d="M23.7609 7.97642C23.7609 7.97642 23.5266 6.32173 22.8047 5.59517C21.8906 4.63892 20.8688 4.63423 20.4 4.57798C17.0438 4.33423 12.0047 4.33423 12.0047 4.33423H11.9953C11.9953 4.33423 6.95625 4.33423 3.6 4.57798C3.13125 4.63423 2.10938 4.63892 1.19531 5.59517C0.473438 6.32173 0.24375 7.97642 0.24375 7.97642C0.24375 7.97642 0 9.92173 0 11.8624V13.6811C0 15.6217 0.239062 17.567 0.239062 17.567C0.239062 17.567 0.473437 19.2217 1.19062 19.9483C2.10469 20.9045 3.30469 20.8717 3.83906 20.9749C5.76094 21.1577 12 21.2139 12 21.2139C12 21.2139 17.0438 21.2045 20.4 20.9655C20.8688 20.9092 21.8906 20.9045 22.8047 19.9483C23.5266 19.2217 23.7609 17.567 23.7609 17.567C23.7609 17.567 24 15.6264 24 13.6811V11.8624C24 9.92173 23.7609 7.97642 23.7609 7.97642ZM9.52031 15.8889V9.1436L16.0031 12.528L9.52031 15.8889Z" fill="#eb2127"/>
</svg>
